<svg xmlns="http://www.w3.org/2000/svg" xmlns:xlink="http://www.w3.org/1999/xlink" viewBox="0 0 490 348" class="creator-module--console--cc5d4"><defs><linearGradient id="sample-console-cord-gradient" x1="0%" y1="0%" x2="100%" y2="0%"><stop offset="0" stop-color="#fff"></stop><stop offset="1" stop-color="#c4beb6"></stop></linearGradient></defs><g><g><rect x="35" y="8" width="100" height="100" rx="3.5" fill="gray"></rect><path d="M235.554,18A3.5,3.5,0,0,1,239,21.446V94.554A3.5,3.5,0,0,1,235.554,98H162.446A3.5,3.5,0,0,1,159,94.554V21.446A3.5,3.5,0,0,1,162.446,18h73.108m0-5H162.446A8.456,8.456,0,0,0,154,21.446V94.554A8.456,8.456,0,0,0,162.446,103h73.108A8.456,8.456,0,0,0,244,94.554V21.446A8.456,8.456,0,0,0,235.554,13Z" fill="#cceeff"></path><path d="M195.25,22.5a.752.752,0,0,1,.75.75v69.5a.752.752,0,0,1-.75.75h-30.5a.752.752,0,0,1-.75-.75V23.25a.752.752,0,0,1,.75-.75h30.5m0-2h-30.5A2.75,2.75,0,0,0,162,23.25v69.5a2.75,2.75,0,0,0,2.75,2.75h30.5A2.75,2.75,0,0,0,198,92.75V23.25a2.75,2.75,0,0,0-2.75-2.75Z" fill="#c4beb6"></path><path d="M233.227,22.5a.774.774,0,0,1,.773.773V92.727a.774.774,0,0,1-.773.773H202.773a.774.774,0,0,1-.773-.773V23.273a.774.774,0,0,1,.773-.773h30.454m0-2H202.773A2.774,2.774,0,0,0,200,23.273V92.727a2.774,2.774,0,0,0,2.773,2.773h30.454A2.774,2.774,0,0,0,236,92.727V23.273a2.774,2.774,0,0,0-2.773-2.773Z" fill="#c4beb6"></path><rect x="2" y="54.5" width="25" height="7" fill="url(#sample-console-cord-gradient)"></rect><g style="transition: opacity 0.3s; opacity: 0;"><rect x="142" y="73" width="57" height="42" fill="#333" opacity="0.5"></rect><text text-anchor="middle" dy="0.71em" width="57" style="font-size: 12px; fill: rgb(255, 255, 255);"><tspan x="170.5" y="90" dy="0em">Previous</tspan><tspan x="170.5" y="90" dy="1em">Profile</tspan></text></g><g style="transition: opacity 0.3s; opacity: 0;"><rect x="199" y="73" width="57" height="42" fill="#333" opacity="0.5"></rect><text text-anchor="middle" dy="0.71em" width="57" style="font-size: 12px; fill: rgb(255, 255, 255);"><tspan x="227.5" y="90" dy="0em">Next</tspan><tspan x="227.5" y="90" dy="1em">Profile</tspan></text></g><rect x="26.5" y="1" width="230" height="115" rx="5" fill="none" stroke="#c4beb6" stroke-miterlimit="10" stroke-width="2"></rect><image width="50" height="50" x="60" y="25" xlink:href="/static/b7f717c13dacf2e987ac6fb88ea60f9f/lightroom_b752df0fbd.svg" title="Profile icon"></image><text text-anchor="middle" dy="0.71em" width="115" style="font-size: 12px; fill: white; transition: opacity 0.3s; opacity: 0;"><tspan x="85.736" y="89" dy="0em">Develop</tspan></text></g><g><g><path d="M463.55,254a3.44,3.44,0,0,1,3.45,3.45v63.1a3.44,3.44,0,0,1-3.45,3.45h-39.1a3.44,3.44,0,0,1-3.45-3.45v-63.1a3.44,3.44,0,0,1,3.45-3.45h39.1m0-5h-39.1a8.46,8.46,0,0,0-8.45,8.45v63.1a8.46,8.46,0,0,0,8.45,8.45h39.1a8.46,8.46,0,0,0,8.45-8.45v-63.1a8.46,8.46,0,0,0-8.45-8.45Z" fill="#cceeff"></path><path d="M461.61,258.89v59.22H426.39V258.89h35.22m.12-2.89H426.27a2.77,2.77,0,0,0-2.77,2.77v59.46a2.77,2.77,0,0,0,2.77,2.77h35.46a2.77,2.77,0,0,0,2.77-2.77V258.77a2.77,2.77,0,0,0-2.77-2.77Z" fill="#c4beb6"></path></g><g><path d="M392.55,254a3.44,3.44,0,0,1,3.45,3.45v63.1a3.44,3.44,0,0,1-3.45,3.45h-39.1a3.44,3.44,0,0,1-3.45-3.45v-63.1a3.44,3.44,0,0,1,3.45-3.45h39.1m0-5h-39.1a8.46,8.46,0,0,0-8.45,8.45v63.1a8.46,8.46,0,0,0,8.45,8.45h39.1a8.46,8.46,0,0,0,8.45-8.45v-63.1a8.46,8.46,0,0,0-8.45-8.45Z" fill="#cceeff"></path><path d="M390.61,258.89v59.22H355.39V258.89h35.22m.12-2.89H355.27a2.77,2.77,0,0,0-2.77,2.77v59.46a2.77,2.77,0,0,0,2.77,2.77h35.46a2.77,2.77,0,0,0,2.77-2.77V258.77a2.77,2.77,0,0,0-2.77-2.77Z" fill="#c4beb6"></path></g><g><path d="M321.55,254a3.44,3.44,0,0,1,3.45,3.45v63.1a3.44,3.44,0,0,1-3.45,3.45h-39.1a3.44,3.44,0,0,1-3.45-3.45v-63.1a3.44,3.44,0,0,1,3.45-3.45h39.1m0-5h-39.1a8.46,8.46,0,0,0-8.45,8.45v63.1a8.46,8.46,0,0,0,8.45,8.45h39.1a8.46,8.46,0,0,0,8.45-8.45v-63.1a8.46,8.46,0,0,0-8.45-8.45Z" fill="#cceeff"></path><path d="M319.61,258.89v59.22H284.39V258.89h35.22m.12-2.89H284.27a2.77,2.77,0,0,0-2.77,2.77v59.46a2.77,2.77,0,0,0,2.77,2.77h35.46a2.77,2.77,0,0,0,2.77-2.77V258.77a2.77,2.77,0,0,0-2.77-2.77Z" fill="#c4beb6"></path></g><g style="transition: opacity 0.3s; opacity: 0;"><rect x="259" y="324.5" width="76" height="21" fill="#333" opacity="0.5"></rect><text text-anchor="middle" dy="0.71em" width="76" style="font-size: 12px; fill: rgb(255, 255, 255);"><tspan x="297" y="338" dy="0em">Copy</tspan></text></g><g style="transition: opacity 0.3s; opacity: 0;"><rect x="335" y="324.5" width="76" height="21" fill="#333" opacity="0.5"></rect><text text-anchor="middle" dy="0.71em" width="76" style="font-size: 12px; fill: rgb(255, 255, 255);"><tspan x="373" y="338" dy="0em">Paste</tspan></text></g><g style="transition: opacity 0.3s; opacity: 0;"><rect x="411" y="324.5" width="76" height="21" fill="#333" opacity="0.5"></rect><text text-anchor="middle" dy="0.71em" width="76" style="font-size: 12px; fill: rgb(255, 255, 255);"><tspan x="449" y="338" dy="0em">Before/After</tspan></text></g><rect x="258" y="231.5" width="230" height="115" rx="5" fill="none" stroke="#c4beb6" stroke-miterlimit="10" stroke-width="2"></rect></g><g><circle cx="373" cy="116" r="95" fill="none" stroke="#cceeff" stroke-miterlimit="10" stroke-width="5"></circle><circle cx="373" cy="116" r="65" fill="none" stroke="#c4beb6" stroke-miterlimit="10" stroke-width="3"></circle><g style="transition: opacity 0.3s; opacity: 0;"><rect x="259" y="209" width="228" height="21" fill="#333" opacity="0.5"></rect><text text-anchor="middle" dy="0.71em" width="228" style="font-size: 12px; fill: rgb(255, 255, 255);"><tspan x="373" y="222.5" dy="0em">Temp, Tint + Exposure</tspan></text></g><rect x="258" y="1" width="230" height="230" rx="5" fill="none" stroke="#c4beb6" stroke-miterlimit="10" stroke-width="2"></rect></g><g><g><circle cx="83.5" cy="160.5" r="25.5" fill="none" stroke="#cceeff" stroke-miterlimit="10" stroke-width="5"></circle><circle cx="83.5" cy="160.5" r="19" fill="none" stroke="#c4beb6" stroke-miterlimit="10" stroke-width="3"></circle></g><g><circle cx="83.5" cy="231.5" r="25.5" fill="none" stroke="#cceeff" stroke-miterlimit="10" stroke-width="5"></circle><circle cx="83.5" cy="231.5" r="19" fill="none" stroke="#c4beb6" stroke-miterlimit="10" stroke-width="3"></circle></g><g><circle cx="83.5" cy="302.5" r="25.5" fill="none" stroke="#cceeff" stroke-miterlimit="10" stroke-width="5"></circle><circle cx="83.5" cy="302.5" r="19" fill="none" stroke="#c4beb6" stroke-miterlimit="10" stroke-width="3"></circle></g><g style="transition: opacity 0.3s; opacity: 0;"><rect x="27.5" y="171.5" width="113" height="21" fill="#333" opacity="0.5"></rect><text text-anchor="middle" dy="0.71em" width="113" style="font-size: 12px; fill: rgb(255, 255, 255);"><tspan x="83.5" y="185" dy="0em">Clarity</tspan></text></g><g style="transition: opacity 0.3s; opacity: 0;"><rect x="27.5" y="248.5" width="113" height="21" fill="#333" opacity="0.5"></rect><text text-anchor="middle" dy="0.71em" width="113" style="font-size: 12px; fill: rgb(255, 255, 255);"><tspan x="83.5" y="263" dy="0em">Texture</tspan></text></g><g style="transition: opacity 0.3s; opacity: 0;"><rect x="27.5" y="324.5" width="113" height="21" fill="#333" opacity="0.5"></rect><text text-anchor="middle" dy="0.71em" width="113" style="font-size: 12px; fill: rgb(255, 255, 255);"><tspan x="83.5" y="338" dy="0em">Contrast</tspan></text></g><rect x="26.5" y="116.5" width="115" height="230" rx="5" fill="none" stroke="#c4beb6" stroke-miterlimit="10" stroke-width="2"></rect></g><g><g><circle cx="199.5" cy="160.5" r="25.5" fill="none" stroke="#cceeff" stroke-miterlimit="10" stroke-width="5"></circle><circle cx="199.5" cy="160.5" r="19" fill="none" stroke="#c4beb6" stroke-miterlimit="10" stroke-width="3"></circle></g><g><circle cx="199.5" cy="231.5" r="25.5" fill="none" stroke="#cceeff" stroke-miterlimit="10" stroke-width="5"></circle><circle cx="199.5" cy="231.5" r="19" fill="none" stroke="#c4beb6" stroke-miterlimit="10" stroke-width="3"></circle></g><g><circle cx="199.5" cy="302.5" r="25.5" fill="none" stroke="#cceeff" stroke-miterlimit="10" stroke-width="5"></circle><circle cx="199.5" cy="302.5" r="19" fill="none" stroke="#c4beb6" stroke-miterlimit="10" stroke-width="3"></circle></g><g style="transition: opacity 0.3s; opacity: 0;"><rect x="143.5" y="171.5" width="113" height="21" fill="#333" opacity="0.5"></rect><text text-anchor="middle" dy="0.71em" width="113" style="font-size: 12px; fill: rgb(255, 255, 255);"><tspan x="199.5" y="185" dy="0em">High. + Blacks</tspan></text></g><g style="transition: opacity 0.3s; opacity: 0;"><rect x="143.5" y="248.5" width="113" height="21" fill="#333" opacity="0.5"></rect><text text-anchor="middle" dy="0.71em" width="113" style="font-size: 12px; fill: rgb(255, 255, 255);"><tspan x="199.5" y="263" dy="0em">Shad. + Whites</tspan></text></g><g style="transition: opacity 0.3s; opacity: 0;"><rect x="143.5" y="324.5" width="113" height="21" fill="#333" opacity="0.5"></rect><text text-anchor="middle" dy="0.71em" width="113" style="font-size: 12px; fill: rgb(255, 255, 255);"><tspan x="199.5" y="338" dy="0em">Vibrance</tspan></text></g><rect x="142.5" y="116.5" width="115" height="230" rx="5" fill="none" stroke="#c4beb6" stroke-miterlimit="10" stroke-width="2"></rect></g></g></svg>