<svg enable-background="new 0 0 256.4 250" viewBox="0 0 256.4 250" xmlns="http://www.w3.org/2000/svg"><path d="m45.4 0h165.6c25.1 0 45.4 20.3 45.4 45.4v159.2c0 25.1-20.3 45.4-45.4 45.4h-165.6c-25.1 0-45.4-20.3-45.4-45.4v-159.2c0-25.1 20.3-45.4 45.4-45.4z" fill="#001e36"/><g fill="#31a8ff"><path d="m90 176.7h-61c-1.1 0-1.5-.6-1.5-1.9v-109.2c0-1.1.4-1.5 1.4-1.5h18.9c.7 0 1.1.4 1.1 1.2v89.7h44.4c1 0 1.3.5 1.1 1.5l-2.8 18.6c-.1.6-.3 1.1-.6 1.3s-.7.3-1 .3z"/><path d="m105.2 91.2h16.9c1 0 1.6.5 2 1.7.3.7.6 1.6.7 2.5.2 1.1.3 2.2.4 3.3.1 1.2.1 2.5.1 3.8 2.8-3.6 6.3-6.8 10.3-9.2 4.3-2.6 9.3-4 14.3-3.8 1 0 1.4.5 1.4 1.5v20.8c0 .9-.5 1.2-1.5 1.2-3.4-.2-6.8 0-10.1.7-2.8.6-5.4 1.6-8 2.9-1.9 1-3.7 2.4-5.2 4v54.5c0 1.1-.4 1.5-1.3 1.5h-18.6c-1.1 0-1.5-.5-1.5-1.7v-59.2c0-2.6 0-5.2-.1-8 0-2.8-.1-5.6-.2-8.3-.1-2.4-.3-4.7-.6-7.1 0-.3 0-.6.2-1 .3-.1.5-.2.8-.1z"/><path d="m227.1 75.4c-2.2-1-4.7-1.5-7.2-1.8-3.6-.4-7.3-.6-10.9-.6-10.5 0-19.7 2.2-27.2 6.6s-13.7 10.9-17.7 18.7c-4.2 7.9-6.2 17.3-6.2 27.8-.1 6.3.7 12.6 2.4 18.8 1.5 5.2 3.7 10.1 6.8 14.6 2.9 4.2 6.4 7.7 10.5 10.6s8.7 5.1 13.6 6.4c5 1.4 10.4 2.1 15.6 2.1 3.7 0 7.4-.2 11-.7 3-.3 5.9-1.1 8.7-2.1 1.1-.5 1.7-1.6 1.6-2.9v-15.9c.1-.5-.1-1.2-.5-1.6-.3-.2-.9-.5-1.7.1-2.4.9-4.9 1.5-7.5 1.8-3.1.3-6.2.4-9.3.4-2.8 0-5.7-.4-8.3-1.2-2.9-.7-5.6-1.9-8.1-3.4-2.7-1.6-4.9-3.7-6.7-6.2-2-2.8-3.6-5.9-4.7-9.2-1.2-4.1-1.8-8.2-1.7-12.5-.1-5.9 1.1-11.8 3.5-17.1 2.2-4.6 5.7-8.5 10-11.2 4.7-2.8 10.1-4.2 15.6-4.1 3.3 0 6.7.2 10 .9 2.7.4 5.2 1.3 7.7 2.6.4.2 1 .2 1.4 0 .4-.4.7-1 .6-1.6v-16.7c0-1.1-.4-2-1.3-2.6z"/></g></svg>